<mxfile host="app.diagrams.net" agent="Mozilla/5.0 (Windows NT 10.0; Win64; x64) AppleWebKit/537.36 (KHTML, like Gecko) Chrome/126.0.0.0 Safari/537.36" version="24.7.5">
  <diagram name="Page-1" id="aEss4BuFsChod2kKsBpk">
    <mxGraphModel dx="2759" dy="1040" grid="1" gridSize="10" guides="1" tooltips="1" connect="1" arrows="1" fold="1" page="1" pageScale="1" pageWidth="850" pageHeight="1100" math="0" shadow="0">
      <root>
        <mxCell id="0" />
        <mxCell id="1" parent="0" />
        <mxCell id="Fvr1m3rNVJXl_hL_6mhK-1" value="" style="image;html=1;image=img/lib/clip_art/computers/Server_Rack_128x128.png" vertex="1" parent="1">
          <mxGeometry x="41" y="50" width="80" height="80" as="geometry" />
        </mxCell>
        <mxCell id="Fvr1m3rNVJXl_hL_6mhK-2" value="" style="image;html=1;image=img/lib/clip_art/computers/Database_128x128.png" vertex="1" parent="1">
          <mxGeometry x="40" y="180" width="80" height="80" as="geometry" />
        </mxCell>
        <mxCell id="Fvr1m3rNVJXl_hL_6mhK-3" value="" style="sketch=0;points=[[0,0,0],[0.25,0,0],[0.5,0,0],[0.75,0,0],[1,0,0],[0,1,0],[0.25,1,0],[0.5,1,0],[0.75,1,0],[1,1,0],[0,0.25,0],[0,0.5,0],[0,0.75,0],[1,0.25,0],[1,0.5,0],[1,0.75,0]];outlineConnect=0;fontColor=#232F3E;fillColor=#DD344C;strokeColor=#ffffff;dashed=0;verticalLabelPosition=bottom;verticalAlign=top;align=center;html=1;fontSize=12;fontStyle=0;aspect=fixed;shape=mxgraph.aws4.resourceIcon;resIcon=mxgraph.aws4.business_application;" vertex="1" parent="1">
          <mxGeometry x="42" y="310" width="78" height="78" as="geometry" />
        </mxCell>
        <mxCell id="Fvr1m3rNVJXl_hL_6mhK-5" value="On-Premises Databases" style="text;html=1;align=center;verticalAlign=middle;resizable=0;points=[];autosize=1;strokeColor=none;fillColor=none;fontSize=16;" vertex="1" parent="1">
          <mxGeometry x="-10" y="260" width="200" height="30" as="geometry" />
        </mxCell>
        <mxCell id="Fvr1m3rNVJXl_hL_6mhK-6" value="On-Premises Servers" style="text;html=1;align=center;verticalAlign=middle;resizable=0;points=[];autosize=1;strokeColor=none;fillColor=none;fontSize=16;" vertex="1" parent="1">
          <mxGeometry y="130" width="180" height="30" as="geometry" />
        </mxCell>
        <mxCell id="Fvr1m3rNVJXl_hL_6mhK-7" value="On-Premises Applications" style="text;html=1;align=center;verticalAlign=middle;resizable=0;points=[];autosize=1;strokeColor=none;fillColor=none;fontSize=16;" vertex="1" parent="1">
          <mxGeometry x="-21" y="401" width="210" height="30" as="geometry" />
        </mxCell>
        <mxCell id="Fvr1m3rNVJXl_hL_6mhK-8" value="" style="image;aspect=fixed;html=1;points=[];align=center;fontSize=12;image=img/lib/azure2/networking/Virtual_Networks.svg;" vertex="1" parent="1">
          <mxGeometry x="327" y="50" width="67" height="40" as="geometry" />
        </mxCell>
        <mxCell id="Fvr1m3rNVJXl_hL_6mhK-9" value="" style="verticalLabelPosition=bottom;html=1;verticalAlign=top;align=center;strokeColor=none;fillColor=#00BEF2;shape=mxgraph.azure.virtual_machine;" vertex="1" parent="1">
          <mxGeometry x="337" y="160" width="50" height="40" as="geometry" />
        </mxCell>
        <mxCell id="Fvr1m3rNVJXl_hL_6mhK-13" value="" style="image;aspect=fixed;html=1;points=[];align=center;fontSize=12;image=img/lib/azure2/identity/Azure_Active_Directory.svg;" vertex="1" parent="1">
          <mxGeometry x="325.5" y="510" width="70" height="64" as="geometry" />
        </mxCell>
        <mxCell id="Fvr1m3rNVJXl_hL_6mhK-14" value="" style="verticalLabelPosition=bottom;html=1;verticalAlign=top;align=center;strokeColor=none;fillColor=#00BEF2;shape=mxgraph.azure.storage;pointerEvents=1;" vertex="1" parent="1">
          <mxGeometry x="337" y="630" width="50" height="40" as="geometry" />
        </mxCell>
        <mxCell id="Fvr1m3rNVJXl_hL_6mhK-15" value="" style="image;sketch=0;aspect=fixed;html=1;points=[];align=center;fontSize=12;image=img/lib/mscae/VPN_Gateway.svg;" vertex="1" parent="1">
          <mxGeometry x="342" y="710" width="45" height="50" as="geometry" />
        </mxCell>
        <mxCell id="Fvr1m3rNVJXl_hL_6mhK-16" value="" style="image;aspect=fixed;html=1;points=[];align=center;fontSize=12;image=img/lib/azure2/management_governance/Monitor.svg;" vertex="1" parent="1">
          <mxGeometry x="330" y="820" width="64" height="64" as="geometry" />
        </mxCell>
        <mxCell id="Fvr1m3rNVJXl_hL_6mhK-17" value="" style="image;aspect=fixed;html=1;points=[];align=center;fontSize=12;image=img/lib/azure2/databases/SQL_Server.svg;" vertex="1" parent="1">
          <mxGeometry x="332" y="250" width="68" height="68" as="geometry" />
        </mxCell>
        <mxCell id="Fvr1m3rNVJXl_hL_6mhK-19" value="VNet" style="text;html=1;align=center;verticalAlign=middle;resizable=0;points=[];autosize=1;strokeColor=none;fillColor=none;fontSize=16;" vertex="1" parent="1">
          <mxGeometry x="334" y="91" width="60" height="30" as="geometry" />
        </mxCell>
        <mxCell id="Fvr1m3rNVJXl_hL_6mhK-20" value="Azure VMs" style="text;html=1;align=center;verticalAlign=middle;resizable=0;points=[];autosize=1;strokeColor=none;fillColor=none;fontSize=16;" vertex="1" parent="1">
          <mxGeometry x="312" y="200" width="100" height="30" as="geometry" />
        </mxCell>
        <mxCell id="Fvr1m3rNVJXl_hL_6mhK-23" value="Azure SQL Server" style="text;html=1;align=center;verticalAlign=middle;resizable=0;points=[];autosize=1;strokeColor=none;fillColor=none;fontSize=16;" vertex="1" parent="1">
          <mxGeometry x="285.5" y="321" width="150" height="30" as="geometry" />
        </mxCell>
        <mxCell id="Fvr1m3rNVJXl_hL_6mhK-24" value="Azure App Service" style="text;html=1;align=center;verticalAlign=middle;resizable=0;points=[];autosize=1;strokeColor=none;fillColor=none;fontSize=16;" vertex="1" parent="1">
          <mxGeometry x="284" y="461" width="160" height="30" as="geometry" />
        </mxCell>
        <mxCell id="Fvr1m3rNVJXl_hL_6mhK-25" value="" style="image;aspect=fixed;html=1;points=[];align=center;fontSize=12;image=img/lib/azure2/app_services/App_Services.svg;" vertex="1" parent="1">
          <mxGeometry x="332" y="384" width="64" height="64" as="geometry" />
        </mxCell>
        <mxCell id="Fvr1m3rNVJXl_hL_6mhK-26" value="Entra ID" style="text;html=1;align=center;verticalAlign=middle;resizable=0;points=[];autosize=1;strokeColor=none;fillColor=none;fontSize=16;" vertex="1" parent="1">
          <mxGeometry x="324" y="574" width="80" height="30" as="geometry" />
        </mxCell>
        <mxCell id="Fvr1m3rNVJXl_hL_6mhK-27" value="Azure Storage" style="text;html=1;align=center;verticalAlign=middle;resizable=0;points=[];autosize=1;strokeColor=none;fillColor=none;fontSize=16;" vertex="1" parent="1">
          <mxGeometry x="299" y="671" width="130" height="30" as="geometry" />
        </mxCell>
        <mxCell id="Fvr1m3rNVJXl_hL_6mhK-28" value="VPN Gateway" style="text;html=1;align=center;verticalAlign=middle;resizable=0;points=[];autosize=1;strokeColor=none;fillColor=none;fontSize=16;" vertex="1" parent="1">
          <mxGeometry x="306" y="770" width="120" height="30" as="geometry" />
        </mxCell>
        <mxCell id="Fvr1m3rNVJXl_hL_6mhK-29" value="Azure Monitor" style="text;html=1;align=center;verticalAlign=middle;resizable=0;points=[];autosize=1;strokeColor=none;fillColor=none;fontSize=16;" vertex="1" parent="1">
          <mxGeometry x="304" y="884" width="120" height="30" as="geometry" />
        </mxCell>
      </root>
    </mxGraphModel>
  </diagram>
</mxfile>
